<?xml version="1.0" encoding="UTF-8" standalone="no"?>
<!-- Created with Inkscape (http://www.inkscape.org/) -->

<svg
   width="210mm"
   height="297mm"
   viewBox="0 0 210 297"
   version="1.1"
   id="svg5"
   inkscape:version="1.2.2 (732a01da63, 2022-12-09)"
   sodipodi:docname="drawing.svg"
   inkscape:export-filename="logo.png"
   inkscape:export-xdpi="96"
   inkscape:export-ydpi="96"
   xmlns:inkscape="http://www.inkscape.org/namespaces/inkscape"
   xmlns:sodipodi="http://sodipodi.sourceforge.net/DTD/sodipodi-0.dtd"
   xmlns="http://www.w3.org/2000/svg"
   xmlns:svg="http://www.w3.org/2000/svg">
  <sodipodi:namedview
     id="namedview7"
     pagecolor="#ffffff"
     bordercolor="#000000"
     borderopacity="0.25"
     inkscape:showpageshadow="2"
     inkscape:pageopacity="0.0"
     inkscape:pagecheckerboard="0"
     inkscape:deskcolor="#d1d1d1"
     inkscape:document-units="mm"
     showgrid="false"
     inkscape:zoom="4"
     inkscape:cx="436.625"
     inkscape:cy="426.25"
     inkscape:window-width="1920"
     inkscape:window-height="1057"
     inkscape:window-x="-8"
     inkscape:window-y="-8"
     inkscape:window-maximized="1"
     inkscape:current-layer="layer1" />
  <defs
     id="defs2">
    <clipPath
       clipPathUnits="userSpaceOnUse"
       id="clipPath681">
      <path
         id="path683"
         style="fill:#ff0000;fill-opacity:1;fill-rule:nonzero;stroke:none;stroke-width:0.264583"
         d="m 100.65042,-1.915831 59.31222,59.312223 59.31222,-59.312223 -59.31222,-59.312225 -28.79156,28.791558 c 0.0516,0.01127 0.10304,0.02273 0.15457,0.03398 0.12879,0.0271 0.25701,0.05623 0.38477,0.08733 0.46561,-0.05193 0.92989,-0.114517 1.39403,-0.177953 0.66471,-0.08793 1.33175,-0.157493 1.99842,-0.22838 0.68981,-0.0699 1.37922,-0.137545 2.06893,-0.208283 0.62295,-0.06437 1.24645,-0.121932 1.86797,-0.199514 0.48378,-0.06502 0.96752,-0.12986 1.45176,-0.191107 -0.0152,-0.0275 -0.0311,-0.05477 -0.0479,-0.08148 -0.11699,-0.18615 -0.17843,-0.23495 -0.33106,-0.394641 -0.17803,-0.142485 -0.26957,-0.233652 -0.4827,-0.329965 -0.35773,-0.161633 -0.76596,-0.222044 -1.15432,-0.238609 -0.1484,-0.0063 -0.2969,8.21e-4 -0.44543,0.0011 -0.73312,0.0359 -1.45957,0.153011 -2.18404,0.265651 -0.0929,0.01458 -0.18548,0.02975 -0.27844,0.04385 -0.23721,0.03593 -0.3142,0.04286 -0.5525,0.0855 -0.32215,0.05765 -0.64169,0.128972 -0.96102,0.200243 -0.12198,0.03629 -0.36739,0.06739 -0.53057,0.138126 0.008,0.0054 0.0255,0.01727 0.0654,0.03984 0.38028,0.223535 0.81722,0.293793 1.24641,0.359195 0.0844,0.01029 0.16883,0.02004 0.25323,0.03033 0.41597,0.05073 0.36442,0.471617 -0.0515,0.420583 -0.0886,-0.01086 -0.17703,-0.02168 -0.26565,-0.03252 -0.50552,-0.07758 -1.01916,-0.167244 -1.45504,-0.453106 -0.0586,-0.05557 -0.13638,-0.0961 -0.17504,-0.166988 -0.11309,-0.207124 -0.10133,-0.339235 0.0665,-0.499147 0.0544,-0.05174 0.13055,-0.07531 0.20025,-0.103045 0.16402,-0.0653 0.38489,-0.107776 0.55395,-0.146165 0.3273,-0.073 0.65457,-0.145998 0.98478,-0.204991 0.24475,-0.04373 0.31401,-0.04936 0.55505,-0.08587 0.0932,-0.01411 0.18606,-0.0292 0.27917,-0.04385 0.74598,-0.115937 1.494,-0.236494 2.24909,-0.270766 0.16155,3.33e-4 0.32317,-0.0072 0.48453,7.29e-4 0.45328,0.0222 0.91717,0.101335 1.33118,0.296347 0.25587,0.120534 0.36197,0.228416 0.57515,0.403408 0.1882,0.202637 0.25414,0.253013 0.39793,0.489282 0.0433,0.07109 0.0819,0.144498 0.11656,0.21961 0.57761,-0.06438 1.15689,-0.113952 1.73605,-0.161877 0.52266,-0.04437 1.04714,-0.06597 1.57162,-0.0581 0.39524,0.0073 0.78799,0.05258 1.17406,0.136298 0.23315,0.0484 0.44678,0.15215 0.6559,0.261997 0.13984,0.08118 0.27765,0.166032 0.42241,0.238244 0.0866,0.04279 0.0435,0.02105 0.12899,0.06468 0.37337,0.190297 0.18106,0.5676 -0.1922,0.377099 -0.0814,-0.04149 -0.0393,-0.01999 -0.1268,-0.06321 -0.14682,-0.07407 -0.28841,-0.157871 -0.42972,-0.2419 -0.17536,-0.09235 -0.35308,-0.182883 -0.54884,-0.223629 -0.35838,-0.07879 -0.72339,-0.118992 -1.09038,-0.126431 -0.51061,-0.0083 -1.02148,0.01425 -1.53032,0.057 -0.54272,0.04491 -1.08505,0.09293 -1.62643,0.151645 0.037,0.147332 0.061,0.298025 0.072,0.449817 -6.1e-4,0.08643 0.002,0.173474 -0.002,0.259805 -0.0182,0.378203 -0.11578,0.746259 -0.27808,1.087817 -0.17344,0.317449 -0.37479,0.606151 -0.68075,0.810109 -0.1417,0.0756 -0.16329,0.0994 -0.3201,0.134472 -0.23995,0.05367 -0.48804,0.01535 -0.73045,0.01498 -0.56463,-0.02927 -1.12909,-0.0679 -1.69111,-0.130812 -0.66236,-0.0822 -1.32258,-0.187813 -1.96845,-0.359197 -0.4979,-0.139497 -0.98909,-0.29966 -1.47478,-0.477222 -0.42739,-0.145495 -0.85679,-0.284583 -1.28624,-0.423874 -0.34484,-0.09987 -0.69005,-0.199015 -1.03848,-0.285748 -0.10739,0.01156 -0.21431,0.02652 -0.32193,0.03618 -0.28611,0.02696 -0.57222,0.05575 -0.85834,0.08294 z m 32.75842,-31.643929 c -0.0144,0.01403 0.0437,0.0022 0.0603,-0.0091 0.0388,-0.02649 0.044,-0.04703 0.0453,-0.05773 -0.0423,0.01911 -0.0792,0.04127 -0.1056,0.06687 z m -0.62339,1.537633 c 0.0174,0.005 0.0349,0.0099 0.0523,0.01499 0.43576,0.14091 0.87166,0.282882 1.30522,0.43045 0.47843,0.174756 0.96204,0.332363 1.45251,0.46955 0.62557,0.165313 1.26524,0.26783 1.90669,0.347137 0.552,0.06159 1.10584,0.09918 1.66041,0.127892 0.2141,-0.005 0.43665,0.04184 0.64824,-0.01096 0.0792,-0.01976 0.10446,-0.04266 0.17319,-0.08477 0.22888,-0.164485 0.38466,-0.397711 0.51596,-0.642388 0.10317,-0.225995 0.17902,-0.465183 0.21084,-0.712177 0.0235,-0.182535 0.0177,-0.249447 0.0179,-0.4352 -0.0117,-0.13436 -0.0355,-0.268053 -0.072,-0.397928 -0.522,0.06456 -1.04298,0.136526 -1.56431,0.206454 -0.62459,0.07787 -1.25106,0.136034 -1.8771,0.200609 -0.68919,0.07067 -1.37856,0.138119 -2.06784,0.207918 -0.66248,0.07044 -1.32509,0.139951 -1.98563,0.227281 -0.12541,0.01714 -0.25096,0.03389 -0.37637,0.05116 z" />
    </clipPath>
  </defs>
  <g
     inkscape:label="Layer 1"
     inkscape:groupmode="layer"
     id="layer1">
    <path
       id="rect111"
       clip-path="url(#clipPath681)"
       style="fill:#000000;stroke-width:0.264583"
       transform="rotate(45)"
       d="m 130.30653,-31.571944 c -1.34666,1.346656 -2.17747,3.209444 -2.17747,5.273197 v 48.765831 c 0,4.127505 3.32318,7.45066 7.45066,7.45066 h 48.76583 c 4.12752,0 7.4503,-3.32279 7.4503,-7.450295 l 3.6e-4,-48.766196 c 0,-2.787351 -1.51638,-5.206114 -3.77173,-6.483792 -4.9e-4,0.0014 -9.3e-4,0.0029 -0.001,0.0044 -0.0125,0.0348 -0.0291,0.05008 -0.0504,0.06577 -0.005,0.0068 -0.0119,0.01184 -0.0201,0.01425 0.007,-0.0051 0.0139,-0.0097 0.0201,-0.01425 0.0103,-0.01302 0.016,-0.03233 0.019,-0.05189 -0.0184,0.0164 -0.0518,0.04616 -0.11108,0.1162 -0.0752,0.0062 -0.14998,-0.0054 -0.22436,-0.01535 -0.0674,-0.0072 -0.12966,-0.03154 -0.18892,-0.06322 -0.0116,-0.0069 -0.0226,-0.01429 -0.034,-0.02156 -0.0226,0.01324 -0.0498,0.02435 -0.0826,0.03216 -0.0416,0.0099 -0.084,0.01755 -0.1268,0.0201 -0.0436,0.004 -0.0872,0.0059 -0.13082,0.0088 -0.047,0.0019 -0.0937,0.0053 -0.14068,0.0077 -0.0627,0.004 -0.12545,0.0067 -0.18782,0.01462 -0.0677,0.0074 -0.13564,0.01469 -0.20316,0.02339 -0.0325,0.0044 -0.0666,0.01127 -0.0994,0.01169 -0.0156,2.13e-4 -0.0373,0.01011 -0.0468,-0.0022 -0.013,-0.01743 -0.0238,-0.03156 -0.0344,-0.04531 -0.036,-0.02741 -0.0715,-0.05641 -0.10231,-0.08916 -0.0295,0.03256 -0.0608,0.06518 -0.0804,0.08185 -0.017,0.01478 -0.037,0.02586 -0.0555,0.03873 -0.0548,-0.01889 -0.12099,-0.01934 -0.16955,-0.04823 -0.0582,0.03865 -0.0934,0.05956 -0.12533,0.04275 -0.005,0.0071 -0.0102,0.0136 -0.0153,0.02046 -0.002,-7.56e-4 -0.004,-0.0015 -0.006,-0.0022 -0.0143,0.01943 -0.0251,0.05457 -0.0446,0.05335 -0.002,0.0027 -0.005,0.0039 -0.008,0.0015 -0.003,-0.0025 -0.006,-0.0048 -0.01,-0.0073 -0.24715,-0.08681 -0.24176,-0.102632 -0.17868,-0.185993 l 3.6e-4,-3.65e-4 -3.6e-4,-3.66e-4 c -0.008,0.0035 -0.0153,0.0072 -0.023,0.0106 -0.11298,0.04943 -0.22572,0.100071 -0.34129,0.14324 -0.16866,0.06147 -0.33802,0.120378 -0.50938,0.173934 -0.12014,0.0355 -0.24075,0.07398 -0.36541,0.08989 l -3.6e-4,0.0033 c -0.0408,0.0052 -0.0758,0.0032 -0.10488,-0.004 -0.0979,0.05219 -0.19819,0.09988 -0.30402,0.135932 -0.29912,0.09703 -0.60554,0.172667 -0.91461,0.230572 -0.3708,0.04581 -0.74476,0.07487 -1.11851,0.05298 -0.38726,-0.02405 -0.77515,-0.04485 -1.1609,-0.08733 -0.37068,-0.03845 -0.7422,-0.07129 -1.10975,-0.134835 -0.44097,-0.0772 -0.88327,-0.14685 -1.32387,-0.226188 -0.11823,-0.01847 -0.23585,-0.04002 -0.35371,-0.06066 0.0541,0.12958 0.055,0.229183 0.0826,0.487453 -0.0922,0.169699 -0.14292,0.369664 -0.27661,0.509013 -0.10056,0.104942 -0.2536,0.148835 -0.39318,0.189281 -0.27134,0.07852 -0.56266,-0.04274 -0.80098,-0.158587 -0.26249,-0.1266 -0.44687,-0.342785 -0.61096,-0.575882 -0.0442,-0.07845 -0.0989,-0.118907 -0.1743,-0.162606 -0.13212,-0.06396 -0.27521,-0.09343 -0.41985,-0.112911 -0.31198,-0.04662 -0.62519,-0.0832 -0.93544,-0.141048 -0.0873,-0.01602 -0.17423,-0.03384 -0.26127,-0.05079 -0.27354,0.03652 -0.54628,0.07917 -0.81815,0.126796 -0.38178,0.06536 -0.76327,0.13344 -1.14372,0.20609 -0.37771,0.06626 -0.75657,0.12874 -1.13679,0.177953 -0.37731,0.03366 -0.75417,0.07801 -1.13312,0.08879 -0.40401,0.01913 -0.80813,0.04332 -1.21279,0.04202 -0.44858,-0.0052 -0.89686,2.13e-4 -1.34543,-0.0022 -0.51023,-0.0035 -1.02054,-3.57e-4 -1.53069,0.0084 -0.45352,9.15e-4 -0.90651,0.01803 -1.36005,0.0095 -0.50898,-0.0095 -1.01814,-0.02557 -1.52594,-0.06285 -0.51493,-0.04445 -1.03011,-0.09049 -1.54239,-0.159683 -0.42849,-0.05149 -0.85674,-0.102852 -1.2855,-0.15201 -0.22451,-0.02386 -0.44962,-0.04599 -0.67454,-0.0665 -0.0762,0.326397 -0.23698,0.628212 -0.52948,0.816686 -0.0808,0.05205 -0.17318,0.08296 -0.25981,0.124604 -0.42496,0.12351 -0.85415,0.04098 -1.27819,-0.03727 -0.2277,-0.04102 -0.45759,-0.07214 -0.6866,-0.104872 -0.18437,-0.03216 -0.37027,-0.0461 -0.55652,-0.06248 -0.18423,-0.01751 -0.36959,-0.0076 -0.55432,-0.01133 -0.1873,0.008 -0.37474,0.0154 -0.56163,0.03106 -0.16847,0.01125 -0.33799,0.01808 -0.50353,0.05262 -0.23522,0.05583 -0.47245,0.100628 -0.70816,0.154202 -0.30089,0.07691 -0.60797,0.115459 -0.91718,0.137394 -0.32098,0.02987 -0.64419,0.04312 -0.9665,0.03691 -0.40163,-0.0127 -0.77412,-0.189524 -0.95006,-0.57369 -0.0596,-0.130028 -0.0749,-0.226241 -0.0764,-0.325578 -0.1517,0.01929 -0.30314,0.04053 -0.45493,0.05956 -0.40483,0.05356 -0.81145,0.08836 -1.219,0.113276 -0.37511,0.02544 -0.74995,0.05383 -1.12619,0.05335 -0.4629,-0.0081 -0.92569,-0.02174 -1.38635,-0.07235 -0.46529,-0.0456 -0.92969,-0.09755 -1.3944,-0.148355 -0.0232,0.04362 -0.0491,0.08732 -0.0804,0.131547 -0.17705,0.250523 -0.39005,0.301352 -0.64348,0.39939 -0.36813,0.107949 -0.74815,0.163661 -1.12546,0.228745 -0.25365,0.05489 -0.50845,0.106736 -0.76406,0.151644 -0.29467,0.06477 -0.59203,0.05878 -0.8905,0.03252 -0.38125,-0.0359 -0.75614,-0.115289 -1.13167,-0.187455 -0.42095,-0.06552 -0.83678,-0.152692 -1.25006,-0.255419 -0.29468,-0.07234 -0.58363,-0.162282 -0.86675,-0.271133 -0.15579,-0.06352 -0.31317,-0.103205 -0.48014,-0.114007 -0.11129,0.0028 -0.21757,0.02167 -0.32229,0.05993 -0.21251,0.08036 -0.41469,0.187416 -0.61133,0.30073 -0.2052,0.104977 -0.38661,0.253295 -0.59707,0.348599 -0.0601,0.02722 -0.12288,0.04866 -0.18417,0.07308 -0.278,0.08002 -0.58425,0.09764 -0.86126,-0.0011 -0.0665,-0.02366 -0.1299,-0.05587 -0.19477,-0.08368 -0.0711,-0.05168 -0.1495,-0.0946 -0.21303,-0.155298 -0.15604,-0.149326 -0.24222,-0.314084 -0.28684,-0.489281 -0.0105,0.0015 -0.0209,0.0036 -0.0314,0.0051 -0.6167,0.08496 -1.23677,0.159332 -1.86065,0.150548 -0.12029,-0.0024 -0.24128,-0.005 -0.36212,-0.0084 -0.2442,0.05755 -0.49159,0.100368 -0.74178,0.124239 -0.2645,0.02321 -0.52271,-0.0071 -0.77832,-0.07381 -0.18571,-0.0485 -0.33722,-0.119774 -0.46041,-0.204629 -0.0964,0.08658 -0.19083,0.175485 -0.28246,0.267113 z m 4.97173,-2.16979 c -0.002,0.0047 -0.004,0.0086 -0.005,0.01352 0.002,-0.0043 0.004,-0.0088 0.007,-0.01315 -3.6e-4,1.4e-5 -8.4e-4,-3.8e-4 -0.001,-3.66e-4 z m 8.74092,1.565041 c 0.007,0.01709 0.0108,0.02756 0.0179,0.04714 0.004,0.01178 -0.006,-0.02416 -0.01,-0.03618 -0.003,-0.0036 -0.005,-0.0073 -0.008,-0.01096 z m 8.46064,-1.572714 c 0.002,0.0083 0.005,0.01651 0.007,0.02485 0.009,-0.0011 0.0177,-0.0029 0.0267,-0.004 0.0701,-0.007 0.14032,-0.01404 0.21047,-0.02119 z m 24.12275,1.925697 c 8.4e-4,0.0036 0.001,0.0073 0.002,0.01096 0.004,0.01516 0.0324,0.05259 0.0256,0.03873 -0.008,-0.01702 -0.0187,-0.03306 -0.0278,-0.0497 z m 9.90656,-0.834956 c -0.004,0.0016 -0.003,0.0014 0.002,3.66e-4 8.4e-4,-9.13e-4 0.001,-0.0013 0.002,-0.0022 -0.001,5.94e-4 -0.003,0.0014 -0.004,0.0018 z m 1.23325,-0.117296 c -0.005,0.0054 -0.008,0.0094 -0.0106,0.01206 0.003,-0.0018 0.007,-0.0033 0.0117,-0.0037 -3.7e-4,-0.0029 -8.2e-4,-0.0057 -0.001,-0.0084 z m 0.0424,-0.0066 c 2e-4,3.11e-4 1.7e-4,7.85e-4 3.7e-4,0.0011 l 3.6e-4,3.66e-4 c 6.3e-4,9.2e-5 0.006,0.004 0.008,0.0015 -0.001,-6.61e-4 -0.005,-0.002 -0.009,-0.0029 z m 0.002,0.0026 c 0.002,0.0026 0.004,0.0054 0.005,0.008 1e-5,2.05e-4 0.001,8.46e-4 0.001,3.65e-4 -2.1e-4,-0.0012 -0.002,-0.0028 -0.003,-0.0044 -0.002,-0.0024 -0.003,-0.0031 -0.003,-0.004 z" />
    <path
       style="fill:#ffffff;stroke-width:0.264583"
       d="m 114.46522,69.424172 v 40.638548 h 41.99316"
       id="path504" />
    <path
       style="fill:none;stroke-width:0.264583"
       d="m -40.638539,-26.415051 2.370579,2.709236"
       id="path506" />
    <path
       style="fill:none;stroke-width:0.264583"
       d="M 156.11972,109.04675 116.49715,70.10148"
       id="path551" />
    <path
       style="fill:#000000;stroke-width:0.264583"
       d="m 114.49826,87.183319 h 25.06989 v 23.573171"
       id="path715"
       sodipodi:nodetypes="ccc" />
  </g>
</svg>
